<?xml version="1.0" standalone="no"?>
<!DOCTYPE svg PUBLIC "-//W3C//DTD SVG 20010904//EN"
 "http://www.w3.org/TR/2001/REC-SVG-20010904/DTD/svg10.dtd">
<svg version="1.0" xmlns="http://www.w3.org/2000/svg"
 width="1280.000000pt" height="1280.000000pt" viewBox="0 0 1280.000000 1280.000000"
 preserveAspectRatio="xMidYMid meet">
<metadata>
Created by potrace 1.14, written by Peter Selinger 2001-2017
</metadata>
<g transform="translate(0.000000,1280.000000) scale(0.100000,-0.100000)"
fill="#000000" stroke="none">
<path d="M6326 10525 c-14 -33 -43 -160 -45 -195 0 -8 -3 -46 -6 -85 -9 -100
-12 -372 -4 -422 4 -28 2 -43 -5 -43 -6 0 -21 -15 -33 -33 -32 -47 -152 -165
-242 -237 -24 -19 -51 -43 -60 -52 -8 -10 -19 -18 -24 -18 -4 0 -18 -9 -30
-21 -12 -12 -33 -28 -47 -37 -53 -35 -175 -126 -178 -134 -2 -4 -8 -8 -13 -8
-8 0 -105 -65 -119 -80 -3 -3 -13 -9 -22 -15 -36 -22 -227 -163 -298 -220 -41
-33 -86 -70 -100 -80 -48 -38 -275 -271 -315 -323 -46 -59 -118 -172 -139
-217 -37 -80 -56 -126 -56 -138 0 -7 -5 -18 -12 -25 -7 -7 -9 -12 -5 -12 3 0
2 -11 -3 -25 -5 -14 -12 -36 -14 -48 -3 -12 -9 -43 -14 -68 -9 -48 -8 -222 2
-297 7 -57 46 -201 60 -227 6 -11 11 -24 12 -30 1 -29 132 -273 176 -330 18
-23 104 -139 113 -153 12 -18 49 -59 121 -134 30 -31 54 -58 54 -60 0 -2 -38
-3 -85 -3 l-85 1 0 -50 0 -51 -27 35 c-40 53 -134 141 -183 174 -25 16 -56 37
-70 46 -14 9 -40 23 -58 31 -39 16 -40 22 -46 159 -3 58 -7 132 -11 165 -30
304 -91 218 -110 -155 -3 -56 -7 -106 -10 -110 -3 -5 -1 -12 5 -15 16 -10 -4
-30 -68 -66 -204 -115 -339 -281 -355 -439 l-4 -35 -69 -3 -69 -3 1 -33 c1
-18 4 -38 8 -44 4 -7 4 -12 -1 -12 -10 0 -10 -131 1 -148 4 -7 4 -12 -1 -12
-4 0 -7 -42 -6 -92 4 -118 4 -100 1 -198 l-3 -85 -75 -1 c-250 -5 -327 -6
-340 -5 -13 1 -15 28 -15 183 l0 183 -202 0 c-112 0 -204 -2 -204 -5 -1 -3 -2
-95 -3 -205 l-1 -199 -25 -6 c-21 -5 -25 -12 -27 -45 -1 -41 -3 -298 -2 -325
1 -8 0 -44 -1 -80 -1 -36 -1 -69 0 -75 1 -5 2 -380 1 -832 l-1 -823 -329 0
-329 0 -4 24 c-3 14 0 30 5 35 6 6 7 11 2 11 -6 0 -11 51 -12 118 0 64 -4 198
-7 297 -7 211 -15 460 -20 667 -3 81 -8 153 -12 159 -5 8 -3 9 6 4 9 -6 11 -4
5 4 -4 7 -9 74 -10 149 -4 144 -13 434 -20 662 -3 74 -7 220 -10 323 -2 103
-7 192 -10 198 -4 5 -1 9 5 9 6 0 8 5 4 12 -5 7 -9 71 -10 143 -5 232 -13 343
-28 378 -13 33 -49 77 -62 77 -3 0 -12 6 -20 14 -7 8 -19 16 -25 18 -7 2 -12
34 -14 78 -10 225 -30 351 -54 335 -18 -11 -37 -181 -40 -352 -1 -59 -3 -63
-36 -86 -42 -28 -74 -69 -81 -99 -11 -53 -15 -147 -30 -683 -7 -274 -16 -538
-30 -950 -3 -93 -7 -233 -9 -310 -2 -77 -4 -140 -5 -140 -1 0 -3 -76 -5 -170
-2 -93 -7 -235 -9 -315 -3 -80 -8 -237 -12 -350 -3 -113 -7 -216 -8 -230 l-1
-25 -377 -3 c-208 -1 -378 1 -379 5 0 5 -2 53 -4 108 -2 55 -6 168 -9 250 -3
83 -8 215 -11 295 -2 80 -7 215 -10 300 -3 85 -8 214 -10 285 -2 72 -7 195
-10 275 -3 80 -7 201 -10 270 -2 69 -7 204 -10 300 -7 185 -11 299 -19 550 -3
85 -8 218 -11 295 -3 77 -8 210 -10 295 -6 163 -14 397 -20 565 -2 55 -4 150
-4 210 0 168 -1 175 -15 210 -17 41 -81 105 -128 130 -21 11 -38 26 -39 35 -8
130 -15 210 -23 265 -10 67 -20 84 -35 57 -6 -11 -13 -38 -16 -59 -10 -75 -18
-169 -19 -221 -2 -48 -5 -55 -31 -70 -60 -35 -120 -93 -137 -132 -6 -14 -12
-90 -14 -170 -1 -80 -5 -197 -8 -260 -4 -63 -9 -164 -11 -225 -2 -60 -7 -159
-10 -220 -13 -249 -17 -368 -29 -785 -3 -102 -8 -255 -11 -340 -2 -85 -7 -236
-11 -335 -3 -99 -7 -244 -9 -321 -1 -78 -6 -148 -10 -154 -6 -9 -4 -11 5 -5 9
6 11 4 5 -4 -4 -7 -9 -74 -11 -149 -2 -76 -6 -209 -8 -297 -3 -88 -8 -241 -11
-340 -3 -99 -7 -239 -9 -312 -2 -72 -7 -136 -10 -142 -4 -6 -2 -11 4 -11 7 0
8 -6 2 -17 -4 -10 -7 -44 -7 -75 l2 -58 -31 -1 c-17 -1 -70 -1 -119 0 l-87 1
2 -462 3 -462 6330 0 c3482 -1 6337 0 6346 2 14 3 16 51 15 460 l-1 457 -114
2 c-63 1 -115 4 -117 5 -1 2 -5 95 -9 208 -3 113 -8 273 -11 355 -2 83 -6 215
-9 295 -2 80 -6 222 -10 315 -10 305 -25 791 -30 960 -2 72 -6 209 -9 305 -3
96 -8 247 -11 335 -6 187 -13 391 -20 525 -2 52 -7 149 -10 215 -3 66 -8 165
-11 220 -2 55 -6 179 -8 275 -2 96 -8 187 -14 201 -15 39 -63 90 -120 129 -28
19 -50 41 -50 50 2 46 -16 255 -22 255 -1 0 -3 12 -4 26 -6 65 -32 60 -42 -9
-3 -26 -8 -55 -10 -65 -2 -10 -6 -64 -10 -120 -6 -98 -14 -127 -37 -127 -19 0
-98 -72 -123 -112 -25 -39 -25 -44 -29 -281 -2 -133 -4 -242 -5 -242 -1 0 -3
-56 -5 -125 -2 -69 -7 -195 -10 -280 -3 -85 -8 -211 -10 -280 -2 -69 -7 -195
-10 -280 -3 -85 -8 -220 -10 -300 -5 -160 -11 -312 -20 -555 -4 -88 -8 -216
-10 -285 -2 -69 -4 -125 -5 -125 0 0 -3 -74 -5 -165 -7 -218 -13 -393 -20
-570 -3 -80 -8 -206 -10 -280 -10 -335 -16 -464 -20 -468 -2 -2 -173 -5 -379
-6 l-376 -1 -1 35 c-4 176 -7 239 -14 250 -5 7 -4 11 1 7 5 -3 8 20 7 51 -1
32 -3 57 -3 57 -2 0 -5 75 -14 380 -4 110 -9 263 -11 340 -5 131 -9 249 -20
625 -3 85 -7 220 -9 300 -3 80 -8 240 -12 355 -4 116 -7 270 -8 342 0 73 -3
133 -6 133 -3 0 -6 55 -7 123 0 67 -4 139 -7 160 -6 42 -52 114 -78 122 -31
11 -40 34 -43 112 -6 139 -17 258 -25 273 -9 16 -10 22 -10 45 0 8 -4 15 -9
15 -11 0 -24 -34 -26 -70 -1 -14 -5 -43 -9 -65 -3 -22 -8 -92 -11 -155 -3 -81
-9 -118 -18 -125 -122 -90 -122 -90 -132 -425 -3 -91 -7 -246 -11 -345 -3 -99
-7 -237 -8 -306 -2 -69 -6 -131 -10 -137 -3 -6 -2 -13 4 -17 6 -4 8 -11 4 -16
-3 -6 -8 -72 -9 -147 -2 -75 -6 -225 -10 -332 -3 -107 -8 -260 -10 -340 -3
-80 -7 -221 -11 -315 -3 -93 -7 -224 -9 -290 -1 -66 -6 -223 -10 -350 -4 -126
-8 -242 -8 -257 l-1 -27 -309 -3 c-170 -2 -311 0 -313 4 -3 4 -11 5 -19 1 -17
-6 -17 -11 -18 129 -1 60 2 108 6 108 5 0 5 5 1 11 -8 14 -11 149 -4 149 3 0
6 9 6 20 0 11 -3 20 -6 20 -3 0 -5 32 -5 70 0 39 4 70 8 70 5 0 5 6 1 12 -11
17 -11 288 -1 288 5 0 5 5 1 11 -8 14 -11 149 -4 149 3 0 6 9 6 20 0 11 -3 20
-6 20 -3 0 -5 32 -5 70 0 39 4 70 8 70 5 0 5 6 1 12 -11 17 -11 288 -1 288 5
0 5 5 1 11 -8 14 -11 149 -4 149 3 0 6 9 6 20 0 11 -3 20 -6 20 -3 0 -5 32 -5
70 0 39 4 70 9 70 5 0 4 6 -1 13 -10 14 -9 274 1 284 4 4 -7 12 -25 18 -23 8
-35 20 -40 38 -4 15 -3 29 1 32 5 3 7 15 5 26 -2 12 -4 62 -4 112 -1 154 -2
201 -6 207 -2 3 -93 5 -202 5 l-198 0 0 -183 c0 -175 -1 -182 -20 -183 -44 -2
-409 1 -411 4 -2 2 -5 144 -6 317 l-3 315 -62 -3 c-46 -2 -63 1 -64 10 0 7 -2
20 -4 28 -2 8 -6 24 -8 35 -26 111 -112 238 -211 310 -15 11 -36 27 -46 35
-20 16 -112 73 -120 75 -3 0 -13 5 -23 11 -16 9 -19 26 -23 110 -3 93 -7 155
-18 264 -6 56 -29 123 -44 128 -6 2 -14 -9 -18 -25 -4 -15 -9 -32 -13 -38 -3
-5 -6 -21 -7 -35 -1 -14 -5 -41 -8 -60 -3 -19 -8 -82 -12 -140 -10 -181 -11
-191 -15 -193 -2 -1 -29 -15 -59 -31 -121 -63 -254 -177 -292 -247 l-18 -34
-1 35 c-3 81 5 75 -86 75 -46 0 -83 1 -83 3 0 1 28 33 63 70 224 239 408 552
452 772 2 8 4 15 5 15 2 0 7 27 16 95 15 107 6 286 -17 347 -5 13 -7 23 -4 23
9 0 -49 151 -89 230 -104 207 -303 426 -576 635 -35 28 -71 55 -80 62 -44 34
-117 87 -225 162 -66 47 -121 88 -123 93 -2 4 -9 8 -15 8 -7 0 -24 11 -39 25
-15 14 -30 25 -34 25 -8 0 -248 187 -286 223 -16 14 -28 25 -28 23 0 -7 -127
122 -170 173 -25 29 -44 58 -42 64 5 16 3 373 -2 427 -6 67 -17 152 -23 180
-2 14 -6 32 -7 40 -5 34 -28 89 -41 100 -11 9 -17 5 -29 -25z m104 -5297 c46
-14 180 -81 180 -90 0 -5 6 -8 13 -8 15 0 64 -45 110 -102 32 -40 87 -134 87
-150 0 -4 5 -19 11 -35 7 -15 14 -37 16 -48 7 -30 14 -341 13 -505 -1 -80 -2
-149 -1 -155 1 -30 2 -173 2 -348 l-1 -197 -512 2 -513 3 1 555 c1 584 3 624
30 695 4 11 8 23 8 26 3 18 51 109 58 109 4 0 8 7 8 15 0 8 5 15 10 15 6 0 10
5 10 11 0 17 89 98 140 127 25 14 47 29 50 33 3 3 36 18 75 31 74 27 148 33
205 16z"/>
</g>
</svg>
